<?xml version="1.0" encoding="UTF-8" standalone="no"?>
<svg
  width="300"
  height="200"
  viewBox="0 0 79.374998 52.916666"
  xmlns="http://www.w3.org/2000/svg"
  xmlns:svg="http://www.w3.org/2000/svg">
  <defs id="defs2">
    <clipPath
      clipPathUnits="userSpaceOnUse"
      id="clipPath6851">
      <path
        style="display:inline;opacity:1;fill:none;fill-opacity:1;stroke:#000000;stroke-width:0.0529167;stroke-linecap:round;stroke-linejoin:round;stroke-opacity:1"
        d="m 27.637808,22.042561 c 0,0 -0.401399,-8.47e-4 -0.886285,0.09968 -0.484885,0.100524 -0.744221,0.356424 -1.648363,0.429614 -0.904141,0.07319 -1.961199,0.256876 -2.675932,-0.325884 -0.714732,-0.582759 -1.124076,-1.004789 -1.124076,-1.438545 0,-0.433756 -0.05826,-1.040607 0.954824,-1.572727 1.013084,-0.53212 1.502635,-0.651169 1.767821,-1.077664 0.233117,-0.374919 0.06461,-2.32622 0.319424,-3.294162 0.01722,-0.0654 -0.253209,-1.078616 -0.185855,-1.143005 0.06978,-0.06671 0.497799,0.441553 0.521861,0.397274 0.391023,-0.719568 1.26224,-2.991797 2.16726,-3.362672 0.05949,-0.02438 0.06302,0.935024 0.103085,0.878603 0.560678,-0.789561 2.261362,-1.632354 3.954335,-1.56462 0.832284,0.0333 2.430785,-0.02114 3.81921,0.754327 0,0 -0.652327,0.335732 -0.577027,0.408699 0.724718,0.702238 1.577689,1.592998 2.233142,2.626605 0.255595,0.403056 0.666974,1.464209 0.711403,1.88524 0.0043,0.0403 -0.87213,-0.129094 -0.868161,-0.08907 0.205528,2.094407 -0.02952,3.808147 -0.283006,4.56943 -0.308944,0.927827 -0.978744,1.730821 -0.978744,2.612336 0,0.881515 0.381603,1.750333 0.381603,1.750333 0,0 1.588368,-1.530817 1.767943,-1.807936 0.179578,-0.277118 1.049655,-1.516983 1.406739,-1.751526 0.357087,-0.234543 4.477335,-1.783184 6.822004,-1.501755 2.344668,0.281428 5.04885,0.593043 6.088223,1.17052 0.283184,0.157338 0.827212,0.06504 1.468925,-0.152531 0.236349,-0.08014 0.935786,-0.907606 1.190484,-1.015518 0.07406,-0.03138 -0.301278,0.666671 -0.226552,0.633621 0.189505,-0.08382 0.380495,-0.172514 0.569701,-0.263601 0.170556,-0.08211 1.13026,-0.919564 1.15742,-0.903209 0.01807,0.01089 -0.212886,1.035425 -0.173636,1.005133 0.950553,-0.733574 1.455169,-1.859425 1.455169,-1.859425 0,0 -0.112956,2.021804 -0.49417,4.059364 -0.06829,0.36502 1.138449,-1.920255 1.140851,-1.825347 0.02928,1.156873 -0.761396,3.056135 -1.011557,4.386486 -0.01267,0.0674 1.062011,-1.202301 1.05143,-1.099637 -0.159258,1.545625 -0.943586,2.521577 -1.415039,3.690746 -0.57744,1.432007 -0.677275,4.044932 -2.081734,5.725184 -0.988322,1.182396 -2.590302,3.622183 -4.310652,4.156149 -1.720348,0.533963 -9.903989,1.560563 -12.338151,1.207135 -2.434164,-0.353428 -5.246539,-0.392856 -7.073256,-1.807509 -1.826718,-1.414653 -2.385431,-1.794029 -2.854722,-3.534307 -0.469292,-1.740281 -0.626769,-4.142269 -0.315098,-5.133432 0.311671,-0.991161 0.529799,-0.954141 0.592831,-1.944129 0.06303,-0.989988 -0.117576,-3.816498 -0.117576,-3.816498 z"
        id="path6853" />
    </clipPath>
    <clipPath
      clipPathUnits="userSpaceOnUse"
      id="clipPath6855">
      <path
        style="display:inline;opacity:1;fill:none;fill-opacity:1;stroke:#000000;stroke-width:0.0529167;stroke-linecap:round;stroke-linejoin:round;stroke-opacity:1"
        d="m 27.637808,22.042561 c 0,0 -0.401399,-8.47e-4 -0.886285,0.09968 -0.484885,0.100524 -0.744221,0.356424 -1.648363,0.429614 -0.904141,0.07319 -1.961199,0.256876 -2.675932,-0.325884 -0.714732,-0.582759 -1.124076,-1.004789 -1.124076,-1.438545 0,-0.433756 -0.05826,-1.040607 0.954824,-1.572727 1.013084,-0.53212 1.502635,-0.651169 1.767821,-1.077664 0.233117,-0.374919 0.06461,-2.32622 0.319424,-3.294162 0.01722,-0.0654 -0.253209,-1.078616 -0.185855,-1.143005 0.06978,-0.06671 0.497799,0.441553 0.521861,0.397274 0.391023,-0.719568 1.26224,-2.991797 2.16726,-3.362672 0.05949,-0.02438 0.06302,0.935024 0.103085,0.878603 0.560678,-0.789561 2.261362,-1.632354 3.954335,-1.56462 0.832284,0.0333 2.430785,-0.02114 3.81921,0.754327 0,0 -0.652327,0.335732 -0.577027,0.408699 0.724718,0.702238 1.577689,1.592998 2.233142,2.626605 0.255595,0.403056 0.666974,1.464209 0.711403,1.88524 0.0043,0.0403 -0.87213,-0.129094 -0.868161,-0.08907 0.205528,2.094407 -0.02952,3.808147 -0.283006,4.56943 -0.308944,0.927827 -0.978744,1.730821 -0.978744,2.612336 0,0.881515 0.381603,1.750333 0.381603,1.750333 0,0 1.588368,-1.530817 1.767943,-1.807936 0.179578,-0.277118 1.049655,-1.516983 1.406739,-1.751526 0.357087,-0.234543 4.477335,-1.783184 6.822004,-1.501755 2.344668,0.281428 5.04885,0.593043 6.088223,1.17052 0.283184,0.157338 0.827212,0.06504 1.468925,-0.152531 0.236349,-0.08014 0.935786,-0.907606 1.190484,-1.015518 0.07406,-0.03138 -0.301278,0.666671 -0.226552,0.633621 0.189505,-0.08382 0.380495,-0.172514 0.569701,-0.263601 0.170556,-0.08211 1.13026,-0.919564 1.15742,-0.903209 0.01807,0.01089 -0.212886,1.035425 -0.173636,1.005133 0.950553,-0.733574 1.455169,-1.859425 1.455169,-1.859425 0,0 -0.112956,2.021804 -0.49417,4.059364 -0.06829,0.36502 1.138449,-1.920255 1.140851,-1.825347 0.02928,1.156873 -0.761396,3.056135 -1.011557,4.386486 -0.01267,0.0674 1.062011,-1.202301 1.05143,-1.099637 -0.159258,1.545625 -0.943586,2.521577 -1.415039,3.690746 -0.57744,1.432007 -0.677275,4.044932 -2.081734,5.725184 -0.988322,1.182396 -2.590302,3.622183 -4.310652,4.156149 -1.720348,0.533963 -9.903989,1.560563 -12.338151,1.207135 -2.434164,-0.353428 -5.246539,-0.392856 -7.073256,-1.807509 -1.826718,-1.414653 -2.385431,-1.794029 -2.854722,-3.534307 -0.469292,-1.740281 -0.626769,-4.142269 -0.315098,-5.133432 0.311671,-0.991161 0.529799,-0.954141 0.592831,-1.944129 0.06303,-0.989988 -0.117576,-3.816498 -0.117576,-3.816498 z"
        id="path6857" />
    </clipPath>
    <clipPath
      clipPathUnits="userSpaceOnUse"
      id="clipPath6859">
      <path
        style="display:inline;opacity:1;fill:none;fill-opacity:1;stroke:#000000;stroke-width:0.0529167;stroke-linecap:round;stroke-linejoin:round;stroke-opacity:1"
        d="m 27.637808,22.042561 c 0,0 -0.401399,-8.47e-4 -0.886285,0.09968 -0.484885,0.100524 -0.744221,0.356424 -1.648363,0.429614 -0.904141,0.07319 -1.961199,0.256876 -2.675932,-0.325884 -0.714732,-0.582759 -1.124076,-1.004789 -1.124076,-1.438545 0,-0.433756 -0.05826,-1.040607 0.954824,-1.572727 1.013084,-0.53212 1.502635,-0.651169 1.767821,-1.077664 0.233117,-0.374919 0.06461,-2.32622 0.319424,-3.294162 0.01722,-0.0654 -0.253209,-1.078616 -0.185855,-1.143005 0.06978,-0.06671 0.497799,0.441553 0.521861,0.397274 0.391023,-0.719568 1.26224,-2.991797 2.16726,-3.362672 0.05949,-0.02438 0.06302,0.935024 0.103085,0.878603 0.560678,-0.789561 2.261362,-1.632354 3.954335,-1.56462 0.832284,0.0333 2.430785,-0.02114 3.81921,0.754327 0,0 -0.652327,0.335732 -0.577027,0.408699 0.724718,0.702238 1.577689,1.592998 2.233142,2.626605 0.255595,0.403056 0.666974,1.464209 0.711403,1.88524 0.0043,0.0403 -0.87213,-0.129094 -0.868161,-0.08907 0.205528,2.094407 -0.02952,3.808147 -0.283006,4.56943 -0.308944,0.927827 -0.978744,1.730821 -0.978744,2.612336 0,0.881515 0.381603,1.750333 0.381603,1.750333 0,0 1.588368,-1.530817 1.767943,-1.807936 0.179578,-0.277118 1.049655,-1.516983 1.406739,-1.751526 0.357087,-0.234543 4.477335,-1.783184 6.822004,-1.501755 2.344668,0.281428 5.04885,0.593043 6.088223,1.17052 0.283184,0.157338 0.827212,0.06504 1.468925,-0.152531 0.236349,-0.08014 0.935786,-0.907606 1.190484,-1.015518 0.07406,-0.03138 -0.301278,0.666671 -0.226552,0.633621 0.189505,-0.08382 0.380495,-0.172514 0.569701,-0.263601 0.170556,-0.08211 1.13026,-0.919564 1.15742,-0.903209 0.01807,0.01089 -0.212886,1.035425 -0.173636,1.005133 0.950553,-0.733574 1.455169,-1.859425 1.455169,-1.859425 0,0 -0.112956,2.021804 -0.49417,4.059364 -0.06829,0.36502 1.138449,-1.920255 1.140851,-1.825347 0.02928,1.156873 -0.761396,3.056135 -1.011557,4.386486 -0.01267,0.0674 1.062011,-1.202301 1.05143,-1.099637 -0.159258,1.545625 -0.943586,2.521577 -1.415039,3.690746 -0.57744,1.432007 -0.677275,4.044932 -2.081734,5.725184 -0.988322,1.182396 -2.590302,3.622183 -4.310652,4.156149 -1.720348,0.533963 -9.903989,1.560563 -12.338151,1.207135 -2.434164,-0.353428 -5.246539,-0.392856 -7.073256,-1.807509 -1.826718,-1.414653 -2.385431,-1.794029 -2.854722,-3.534307 -0.469292,-1.740281 -0.626769,-4.142269 -0.315098,-5.133432 0.311671,-0.991161 0.529799,-0.954141 0.592831,-1.944129 0.06303,-0.989988 -0.117576,-3.816498 -0.117576,-3.816498 z"
        id="path6861" />
    </clipPath>
  </defs>
  <path
    style="opacity:1;fill:#ddf1f7;fill-opacity:1;stroke:none;stroke-width:0.0529167;stroke-linecap:round;stroke-linejoin:round;stroke-opacity:1"
    id="path6969">
    <animate
      attributeName='d'
      dur='1.5s'
      repeatCount='indefinite'
      values='
        m 20.256305,36.950531 c -0.211327,-0.435809 -1.805572,-1.761342 -1.695871,-2.269268 0.109701,-0.507923 0.39473,-2.149586 0.88578,-2.535457 0.49105,-0.385871 6.595838,-4.29459 7.965956,-4.892267 1.370119,-0.59768 13.342321,-5.675739 15.546599,-6.397585 2.204281,-0.721846 10.354622,-2.856583 10.862096,-3.013766 0.507476,-0.157183 1.907421,-0.970896 2.59443,-1.219967 0.687009,-0.24907 2.848941,-0.505076 3.624043,-0.724199 0.775105,-0.219123 2.06294,-1.455973 3.109298,-1.829716 1.046359,-0.373744 3.105833,-0.863261 3.105833,-0.863261 0,0 -3.562527,3.257659 -4.497099,3.635843 -0.934572,0.378183 -3.56198,0.926077 -4.628922,1.115169 -1.066943,0.189092 -2.31143,0.964285 -3.756401,2.055061 -1.444974,1.090776 -2.953581,2.541684 -3.95954,2.545087 -1.005962,0.0034 -0.634177,2.44359 -2.264045,3.19574 -1.629867,0.752151 -17.988658,10.604485 -17.988658,10.604485 0,0 -7.303095,2.241722 -8.027011,1.587767 -0.723919,-0.653954 -0.876488,-0.993666 -0.876488,-0.993666 z;
        m 20.57668,37.545691 c -0.868362,-1.195352 -1.457722,-1.456409 -1.096324,-2.299144 0.887945,-2.070571 -3.002304,-3.046048 -0.489832,-4.345802 2.017406,-1.043645 7.051528,-3.049529 8.421646,-3.647206 1.370119,-0.59768 12.593979,-4.274653 14.314511,-5.830183 3.482373,-3.148406 7.181405,-0.568071 10.895741,-3.537482 1.366687,-1.092592 3.06367,-0.215147 4.107624,-0.572209 1.555387,-0.531985 2.245997,-1.387082 3.021099,-1.606205 0.775105,-0.219123 2.22236,-0.447547 3.333371,-0.461762 1.549535,-0.01983 3.278913,-1.00619 3.278913,-1.00619 0,0 -1.407036,2.234885 -4.077792,2.248666 -2.801688,0.01446 -2.676531,0.916872 -4.41026,1.859891 -2.314926,1.259148 -3.058359,0.572277 -4.50333,1.663053 -1.444974,1.090776 -1.499814,3.408194 -3.95954,2.545087 -0.949226,-0.333079 -0.634177,2.44359 -2.264045,3.19574 -1.629867,0.752151 -17.988658,10.604485 -17.988658,10.604485 0,0 -7.303095,2.241722 -8.027011,1.587767 -0.723919,-0.653954 -0.556113,-0.398506 -0.556113,-0.398506 z;
        m 20.256305,36.950531 c -0.211327,-0.435809 -1.805572,-1.761342 -1.695871,-2.269268 0.109701,-0.507923 0.39473,-2.149586 0.88578,-2.535457 0.49105,-0.385871 6.595838,-4.29459 7.965956,-4.892267 1.370119,-0.59768 13.342321,-5.675739 15.546599,-6.397585 2.204281,-0.721846 10.354622,-2.856583 10.862096,-3.013766 0.507476,-0.157183 1.907421,-0.970896 2.59443,-1.219967 0.687009,-0.24907 2.848941,-0.505076 3.624043,-0.724199 0.775105,-0.219123 2.06294,-1.455973 3.109298,-1.829716 1.046359,-0.373744 3.105833,-0.863261 3.105833,-0.863261 0,0 -3.562527,3.257659 -4.497099,3.635843 -0.934572,0.378183 -3.56198,0.926077 -4.628922,1.115169 -1.066943,0.189092 -2.31143,0.964285 -3.756401,2.055061 -1.444974,1.090776 -2.953581,2.541684 -3.95954,2.545087 -1.005962,0.0034 -0.634177,2.44359 -2.264045,3.19574 -1.629867,0.752151 -17.988658,10.604485 -17.988658,10.604485 0,0 -7.303095,2.241722 -8.027011,1.587767 -0.723919,-0.653954 -0.876488,-0.993666 -0.876488,-0.993666 z;
      '
    />
  </path>
  <g
    id="layer1"
    style="display:inline;opacity:1">
    <rect
      style="opacity:1;fill:#fcda95;fill-opacity:1;stroke:none;stroke-width:0.0498092;stroke-linecap:round;stroke-linejoin:round;stroke-opacity:1"
      id="rect6773"
      width="36.860481"
      height="28.882294"
      x="21.055544"
      y="9.8052969"
      ry="0"
      clip-path="url(#clipPath6859)"
      transform="translate(-6.3500003,0.52916664)" />
    <path
      style="opacity:1;fill:#fffbc2;fill-opacity:1;stroke:none;stroke-width:0.0529167;stroke-linecap:round;stroke-linejoin:round;stroke-opacity:1"
      d="m 27.635234,24.151601 c 0,0 0.655243,1.197055 1.608312,1.395116 0.953069,0.198061 2.12561,0.148078 3.173272,-0.552816 1.047666,-0.700894 3.272552,-2.737496 3.272552,-2.737496 l 1.003356,-4.531883 c 0,0 -1.553739,1.337244 -2.356922,1.953799 -0.803182,0.616556 -1.958104,1.388767 -2.761004,1.499756 -0.802899,0.11099 -2.895639,-0.217705 -3.199545,-0.517484 -0.303906,-0.299779 -0.653724,-2.345424 -0.535575,-3.500143 0.11815,-1.154718 0.821307,-2.630204 1.501841,-2.929304 0.680535,-0.299099 2.498289,-0.499313 3.310689,-0.01429 0.812401,0.485027 2.318846,2.217281 2.363137,2.735005 0.04429,0.517723 -0.09463,0.677486 -0.02553,0.709082 0.0691,0.03159 1.651632,-0.981298 1.651632,-0.981298 l 20.926525,1.317403 -0.870598,2.917097 c 0,0 -0.989227,1.535981 -1.511972,1.891944 -0.522745,0.355963 0.319709,2.86677 -0.482791,3.98224 -0.802499,1.11547 -3.609541,2.881585 -4.83176,3.395578 -1.222221,0.51399 -3.671797,0.95727 -5.648502,0.766955 -1.976707,-0.190314 -4.058398,-0.280765 -5.094718,-1.355984 L 38.09131,28.519659 c 0,0 0.244385,2.126512 0.09135,2.565972 -0.153035,0.439459 -2.181683,2.894073 -3.517969,3.540574 -1.336284,0.646504 -3.965226,1.341422 -5.657178,0.552548 C 27.315561,34.389879 25.408822,31.0409 25.408822,31.0409 l -4.794158,-11.389437 3.45989,-1.797974 c 0.118167,1.577999 2.905228,2.380601 5.049835,3.369856 -0.552996,0.3774 -0.996857,0.779305 -1.643282,0.880671 z"
      id="path6697"
      clip-path="url(#clipPath6855)"
      transform="translate(-6.3500003,0.52916664)" />
    <path
      style="display:inline;opacity:1;fill:none;fill-opacity:1;stroke:#000000;stroke-width:0.0529167;stroke-linecap:round;stroke-linejoin:round;stroke-opacity:1"
      d="m 27.637809,22.042561 c 0,0 -0.4014,-8.52e-4 -0.886286,0.09968 -0.484885,0.100524 -0.744221,0.356424 -1.648363,0.429614 -0.904141,0.07319 -1.961199,0.256876 -2.675932,-0.325884 -0.714732,-0.582759 -1.124076,-1.004789 -1.124076,-1.438545 0,-0.433756 -0.05826,-1.040607 0.954824,-1.572727 1.013084,-0.53212 1.502635,-0.651169 1.767821,-1.077664 0.233117,-0.374919 0.06461,-2.32622 0.319424,-3.294162 0.01722,-0.0654 -0.253209,-1.078616 -0.185855,-1.143005 0.06978,-0.06671 0.497799,0.441553 0.521861,0.397274 0.391023,-0.719568 1.26224,-2.991797 2.167261,-3.362672 0.05949,-0.02438 0.06302,0.935024 0.103083,0.878603 0.560678,-0.789561 2.261362,-1.632354 3.954336,-1.56462 0.832283,0.0333 2.430786,-0.02114 3.819209,0.754327 0,0 -0.652327,0.335732 -0.577025,0.408699 0.724716,0.702238 1.577688,1.592998 2.233141,2.626605 0.255595,0.403056 0.666975,1.464209 0.711403,1.88524 0.0043,0.0403 -0.872131,-0.129094 -0.868161,-0.08907 0.205527,2.094407 -0.02952,3.808147 -0.283007,4.56943 -0.308944,0.927827 -0.978744,1.730821 -0.978744,2.612336 0,0.881515 0.381603,1.750333 0.381603,1.750333 0,0 1.588368,-1.530817 1.767943,-1.807936 0.179578,-0.277118 1.049655,-1.516983 1.40674,-1.751526 0.357087,-0.234543 4.477334,-1.783184 6.822003,-1.501755 2.344669,0.281428 5.048851,0.593043 6.088224,1.17052 0.283184,0.157338 0.827213,0.06504 1.468926,-0.152531 0.236349,-0.08014 0.935784,-0.907606 1.190483,-1.015518 0.07406,-0.03138 -0.301277,0.666671 -0.226552,0.633621 0.189506,-0.08382 0.380496,-0.172514 0.569701,-0.263601 0.170557,-0.08211 1.130261,-0.919564 1.157419,-0.903209 0.01808,0.01089 -0.212886,1.035425 -0.173634,1.005133 0.950552,-0.733574 1.455168,-1.859425 1.455168,-1.859425 0,0 -0.112956,2.021804 -0.49417,4.059364 -0.06829,0.36502 1.138449,-1.920255 1.140851,-1.825347 0.02928,1.156873 -0.761397,3.056135 -1.011557,4.386486 -0.01267,0.0674 1.06201,-1.202301 1.051431,-1.099637 -0.159259,1.545625 -0.943587,2.521577 -1.41504,3.690745 -0.577441,1.432008 -0.677274,4.044932 -2.081734,5.725185 -0.988322,1.182397 -2.590302,3.622182 -4.310652,4.156148 -1.720347,0.533964 -9.903989,1.560563 -12.33815,1.207135 -2.434164,-0.353428 -5.24654,-0.392856 -7.073257,-1.807509 -1.826718,-1.414653 -2.385431,-1.794028 -2.854722,-3.534307 -0.469292,-1.740281 -0.626769,-4.142269 -0.315098,-5.133432 0.311672,-0.991161 0.529799,-0.954141 0.592831,-1.944128 0.06303,-0.989988 -0.117576,-3.816498 -0.117576,-3.816498 z"
      id="path912"
      clip-path="url(#clipPath6851)"
      transform="translate(-6.3500003,0.52916664)" />
    <g
      id="layer2"
      style="display:inline">
      <path
        style="opacity:1;fill:#010101;fill-opacity:1;stroke:#000000;stroke-width:0.0529167;stroke-linecap:round;stroke-linejoin:round"
        d="m 19.358689,21.255098 c 0,0 -0.727291,0.186904 -0.882164,0.251965 -0.0533,0.05945 -0.201703,0.378351 -0.201703,0.378351 0.05316,0.03593 1.056489,-0.593351 1.083867,-0.630316 z"
        id="path1011" />
      <path
        style="opacity:1;fill:none;fill-opacity:1;stroke:#000000;stroke-width:0.0529167;stroke-linecap:round;stroke-linejoin:round"
        d="m 16.456722,22.993978 c 0,0 0.87918,0.406028 1.789838,-0.101831 0.910658,-0.507859 1.062586,-0.674155 1.512273,-0.861959 0.517402,-0.216084 0.770699,-0.140352 0.770699,-0.140352"
        id="path1229" />
      <path
        style="opacity:1;fill:none;fill-opacity:1;stroke:#000000;stroke-width:0.0529167;stroke-linecap:round;stroke-linejoin:round"
        d="m 22.7675,21.754119 c 0,0 -0.910161,0.682236 -1.201481,0.747613 -0.291322,0.06538 -0.612722,0.08875 -0.612722,0.08875"
        id="path1256" />
      <path
        style="opacity:1;fill:none;fill-opacity:1;stroke:#000000;stroke-width:0.0529167;stroke-linecap:round;stroke-linejoin:round"
        d="m 21.166146,22.563852 c 0,0 0.697527,-0.04498 1.170774,0.06639 0.473249,0.111373 1.78925,0.167105 1.78925,0.167105"
        id="path1258" />
      <path
        style="opacity:1;fill:#000000;fill-opacity:1;stroke:#000000;stroke-width:0.0529167;stroke-linecap:round;stroke-linejoin:round"
        d="m 26.290189,18.410994 c 0,0 -0.389581,-0.820485 -1.140759,-0.604802 -0.751179,0.215683 -1.491086,0.817099 -1.416008,1.403772 0.07508,0.586672 0.628875,1.265515 1.340178,1.117411 0.711306,-0.148103 1.298292,-0.388637 1.406811,-0.780867 0.108519,-0.39223 -0.190222,-1.135514 -0.190222,-1.135514 z"
        id="path1260" />
      <path
        style="opacity:1;fill:#fcfcfc;fill-opacity:1;stroke:#000000;stroke-width:0.0529167;stroke-linecap:round;stroke-linejoin:round;stroke-opacity:1"
        d="m 26.267003,18.759552 c 0,0 -0.128391,-0.328255 -0.202356,-0.347483 -0.07396,-0.01923 -0.134964,0.23374 -0.08266,0.443201 0.0523,0.209462 0.0975,0.606299 0.139168,0.625631 0.04167,0.01933 0.130439,0.07538 0.186753,0.01376 0.05631,-0.06162 0.0075,-0.547146 -0.0061,-0.614219 -0.01357,-0.06707 -0.0348,-0.120892 -0.0348,-0.120892 z"
        id="path1293" />
    </g>

    <animateTransform
      attributeName="transform"
      type="translate"
      dur="2s"
      values="0,0; 0,-1; 0,0;"
      repeatCount="indefinite" />
  </g>
  <path
    style="opacity:1;fill:#ddf1f7;fill-opacity:1;stroke:none;stroke-width:0.0529167;stroke-linecap:round;stroke-linejoin:round;stroke-opacity:1"
    id="path8215">
    <animate
      attributeName='d'
      dur='1.5s'
      repeatCount='indefinite'
      values='
        m 20.525384,36.405873 c -0.190019,0.464457 -0.380857,1.437084 0.229219,1.920422 0.610076,0.483339 1.057852,1.074566 3.489976,0.617173 2.432121,-0.457396 3.805753,0.534641 5.547294,0.812056 1.741543,0.277413 6.765715,0.226531 7.662529,0.226531 0.896813,0 1.51062,-0.744244 2.351042,-0.834464 0.840425,-0.09022 2.25974,0.174861 2.890909,-0.01786 0.631171,-0.192728 2.334125,-2.380258 3.203988,-2.537836 0.869865,-0.157575 4.447164,-0.330277 5.736687,-0.675899 1.289524,-0.345623 4.679712,-2.453481 5.773939,-2.703214 1.094227,-0.249735 4.038785,-0.0094 5.487882,-0.537204 1.449096,-0.527847 3.931591,-2.547149 4.928123,-3.492325 0.99653,-0.945178 5.884159,-3.050389 5.884159,-3.050389 0,0 -5.045127,-0.464311 -7.571131,0.633861 -1.792465,0.779268 -3.114314,2.306658 -5.217787,3.120843 -1.111372,0.430175 -3.877324,0.292531 -4.667951,0.446855 -0.790628,0.154323 -4.418251,1.13149 -4.887503,1.410914 -0.469252,0.279426 -2.694437,0.888119 -3.75312,1.105781 -1.058682,0.21766 -4.223546,2.466086 -4.94225,2.466086 -0.7187,0 -3.788904,-0.486087 -5.412652,-0.202449 -1.623751,0.283639 -3.526356,0.771068 -4.71768,1.083718 -1.191323,0.31265 -4.526772,-0.13612 -6.148408,-0.07309 -1.621639,0.06303 -4.490496,-0.639804 -5.007232,-0.762012 -0.516737,-0.122206 -0.860033,1.042508 -0.860033,1.042508 z;
        m 20.525384,36.405873 c -0.190019,0.464457 -0.253777,2.323665 0.523212,2.27788 0.855178,-0.05039 1.494698,-0.131591 3.325207,0.753204 1.426268,0.6894 3.418143,-0.750366 5.142187,-0.379426 1.441938,0.310244 5.121748,0.44725 5.977091,0.177688 1.392439,-0.438829 2.517583,0.596398 4.474293,0.297123 1.076096,-0.164587 1.607957,-1.11461 2.365048,-1.264191 0.647425,-0.127913 2.807771,-0.02678 3.767247,-0.821641 1.734652,-1.437044 3.577271,-1.131199 5.259303,-2.220041 1.120716,-0.725481 3.532764,-1.308337 6.335633,-1.174414 2.413245,0.115307 4.112076,-1.488481 5.127184,-2.748002 1.172927,-1.54586 3.227438,-2.160996 4.559803,-2.494521 2.473549,-0.619193 4.843424,-3.655483 4.843424,-3.655483 0,0 -3.217617,1.931981 -5.92924,2.415486 -2.005724,0.357637 -4.432714,0.233669 -6.073112,1.325538 -0.930987,0.619676 -2.919142,1.850294 -3.701495,2.042207 -2.612307,0.640805 -2.548794,1.186953 -4.874502,1.323431 -2.185023,0.128222 -2.473615,1.17841 -3.928467,1.15927 -2.943678,-0.03872 -3.863503,1.077329 -5.47773,1.385055 -1.924198,0.366816 -3.352672,1.82268 -4.924079,1.324999 -1.622191,-0.513766 -3.40589,-0.562115 -4.632949,-0.668556 -1.319513,-0.114461 -4.606867,0.988493 -6.272827,0.375077 -1.522909,-0.560744 -4.508462,-0.350977 -5.025198,-0.473185 -0.516737,-0.122206 -0.860033,1.042508 -0.860033,1.042508 z;
        m 20.525384,36.405873 c -0.190019,0.464457 -0.380857,1.437084 0.229219,1.920422 0.610076,0.483339 1.057852,1.074566 3.489976,0.617173 2.432121,-0.457396 3.805753,0.534641 5.547294,0.812056 1.741543,0.277413 6.765715,0.226531 7.662529,0.226531 0.896813,0 1.51062,-0.744244 2.351042,-0.834464 0.840425,-0.09022 2.25974,0.174861 2.890909,-0.01786 0.631171,-0.192728 2.334125,-2.380258 3.203988,-2.537836 0.869865,-0.157575 4.447164,-0.330277 5.736687,-0.675899 1.289524,-0.345623 4.679712,-2.453481 5.773939,-2.703214 1.094227,-0.249735 4.038785,-0.0094 5.487882,-0.537204 1.449096,-0.527847 3.931591,-2.547149 4.928123,-3.492325 0.99653,-0.945178 5.884159,-3.050389 5.884159,-3.050389 0,0 -5.045127,-0.464311 -7.571131,0.633861 -1.792465,0.779268 -3.114314,2.306658 -5.217787,3.120843 -1.111372,0.430175 -3.877324,0.292531 -4.667951,0.446855 -0.790628,0.154323 -4.418251,1.13149 -4.887503,1.410914 -0.469252,0.279426 -2.694437,0.888119 -3.75312,1.105781 -1.058682,0.21766 -4.223546,2.466086 -4.94225,2.466086 -0.7187,0 -3.788904,-0.486087 -5.412652,-0.202449 -1.623751,0.283639 -3.526356,0.771068 -4.71768,1.083718 -1.191323,0.31265 -4.526772,-0.13612 -6.148408,-0.07309 -1.621639,0.06303 -4.490496,-0.639804 -5.007232,-0.762012 -0.516737,-0.122206 -0.860033,1.042508 -0.860033,1.042508 z;
      '
    />
  </path>
</svg>